<svg xmlns="http://www.w3.org/2000/svg" style='display:none;'>

    <symbol  id="phone" viewBox="0 0 24 24">        
        <g>
        <path d="m20.487 17.14-4.065-3.696a1.001 1.001 0 0 0-1.391.043l-2.393 2.461c-.576-.11-1.734-.471-2.926-1.66-1.192-1.193-1.553-2.354-1.66-2.926l2.459-2.394a1 1 0 0 0 .043-1.391L6.859 3.513a1 1 0 0 0-1.391-.087l-2.17 1.861a1 1 0 0 0-.29.649c-.015.25-.301 6.172 4.291 10.766C11.305 20.707 16.323 21 17.705 21c.202 0 .326-.006.359-.008a.992.992 0 0 0 .648-.291l1.86-2.171a.997.997 0 0 0-.085-1.39z"></path>
        </g>
    </symbol>

    <symbol id="map" viewBox="0 0 24 24" >
        <g>
        <path d="m12 17 1-2V9.858c1.721-.447 3-2 3-3.858 0-2.206-1.794-4-4-4S8 3.794 8 6c0 1.858 1.279 3.411 3 3.858V15l1 2zM10 6c0-1.103.897-2 2-2s2 .897 2 2-.897 2-2 2-2-.897-2-2z"></path><path d="m16.267 10.563-.533 1.928C18.325 13.207 20 14.584 20 16c0 1.892-3.285 4-8 4s-8-2.108-8-4c0-1.416 1.675-2.793 4.267-3.51l-.533-1.928C4.197 11.54 2 13.623 2 16c0 3.364 4.393 6 10 6s10-2.636 10-6c0-2.377-2.197-4.46-5.733-5.437z"></path>
        </g>
    </symbol>

    <symbol id="time" viewBox="0 0 24 24">
        <g>
        <path d="M12 2C6.486 2 2 6.486 2 12s4.486 10 10 10 10-4.486 10-10S17.514 2 12 2zm0 18c-4.411 0-8-3.589-8-8s3.589-8 8-8 8 3.589 8 8-3.589 8-8 8z"></path><path d="M13 7h-2v6h6v-2h-4z"></path>
        </g>
    </symbol>

    <symbol id="whatsapp" viewBox="0 0 24 24">
        <g>
        <path fill-rule="evenodd" clip-rule="evenodd" d="M18.403 5.633A8.919 8.919 0 0 0 12.053 3c-4.948 0-8.976 4.027-8.978 8.977 0 1.582.413 3.126 1.198 4.488L3 21.116l4.759-1.249a8.981 8.981 0 0 0 4.29 1.093h.004c4.947 0 8.975-4.027 8.977-8.977a8.926 8.926 0 0 0-2.627-6.35m-6.35 13.812h-.003a7.446 7.446 0 0 1-3.798-1.041l-.272-.162-2.824.741.753-2.753-.177-.282a7.448 7.448 0 0 1-1.141-3.971c.002-4.114 3.349-7.461 7.465-7.461a7.413 7.413 0 0 1 5.275 2.188 7.42 7.42 0 0 1 2.183 5.279c-.002 4.114-3.349 7.462-7.461 7.462m4.093-5.589c-.225-.113-1.327-.655-1.533-.73-.205-.075-.354-.112-.504.112s-.58.729-.711.879-.262.168-.486.056-.947-.349-1.804-1.113c-.667-.595-1.117-1.329-1.248-1.554s-.014-.346.099-.458c.101-.1.224-.262.336-.393.112-.131.149-.224.224-.374s.038-.281-.019-.393c-.056-.113-.505-1.217-.692-1.666-.181-.435-.366-.377-.504-.383a9.65 9.65 0 0 0-.429-.008.826.826 0 0 0-.599.28c-.206.225-.785.767-.785 1.871s.804 2.171.916 2.321c.112.15 1.582 2.415 3.832 3.387.536.231.954.369 1.279.473.537.171 1.026.146 1.413.089.431-.064 1.327-.542 1.514-1.066.187-.524.187-.973.131-1.067-.056-.094-.207-.151-.43-.263"></path>
        </g>
    </symbol>

    <symbol id="telegram" viewBox="0 0 24 24">
        <g>
        <path d="m20.665 3.717-17.73 6.837c-1.21.486-1.203 1.161-.222 1.462l4.552 1.42 10.532-6.645c.498-.303.953-.14.579.192l-8.533 7.701h-.002l.002.001-.314 4.692c.46 0 .663-.211.921-.46l2.211-2.15 4.599 3.397c.848.467 1.457.227 1.668-.785l3.019-14.228c.309-1.239-.473-1.8-1.282-1.434z"></path>
        </g>
    </symbol>

    <symbol id="arrow-down" viewBox="0 0 24 24" >
        <g>
        <path d="M16.293 9.293 12 13.586 7.707 9.293l-1.414 1.414L12 16.414l5.707-5.707z"></path>
        </g>
    </symbol>
    
    <symbol id="search" viewBox="0 0 24 24" >
        <g>
        <path d="M10 18a7.952 7.952 0 0 0 4.897-1.688l4.396 4.396 1.414-1.414-4.396-4.396A7.952 7.952 0 0 0 18 10c0-4.411-3.589-8-8-8s-8 3.589-8 8 3.589 8 8 8zm0-14c3.309 0 6 2.691 6 6s-2.691 6-6 6-6-2.691-6-6 2.691-6 6-6z"></path>
        <path d="M11.412 8.586c.379.38.588.882.588 1.414h2a3.977 3.977 0 0 0-1.174-2.828c-1.514-1.512-4.139-1.512-5.652 0l1.412 1.416c.76-.758 2.07-.756 2.826-.002z"></path>
        </g>
    </symbol>

    <symbol id="mail" viewBox="0 0 24 24" >
        <g>
        <path d="M20 4H4a2 2 0 0 0-2 2v12a2 2 0 0 0 2 2h16a2 2 0 0 0 2-2V6a2 2 0 0 0-2-2zm0 4.7-8 5.334L4 8.7V6.297l8 5.333 8-5.333V8.7z"></path>
        </g>
    </symbol>

    <symbol id="stars" viewBox="0 0 12 13"  >
        <g>
        <path d="M11.7953 5.13422C11.7017 4.81834 11.4308 4.58728 11.1041 4.54468L8.00347 4.11637L6.77648 1.18449C6.59734 0.75534 6.10421 0.552692 5.67506 0.73183C5.47049 0.817249 5.30783 0.979885 5.22243 1.18446L3.99544 4.11634L0.894819 4.54466C0.432839 4.60898 0.110473 5.03561 0.1748 5.49757C0.202435 5.69609 0.299767 5.87831 0.449415 6.01165L2.78551 8.09483L2.30554 11.3638C2.25354 11.6957 2.406 12.0264 2.69218 12.2025C2.97434 12.3829 3.33728 12.3762 3.61253 12.1854L5.99945 10.5622L8.38638 12.1871C8.77153 12.4485 9.29569 12.3482 9.55712 11.963C9.67591 11.788 9.72457 11.5747 9.69339 11.3655L9.21342 8.09527L11.5495 6.01209C11.7976 5.79364 11.8939 5.4497 11.7953 5.13422Z" />
        </g>
    </symbol>



    
    
 
</svg>

