<svg fill="none" height="40" viewBox="0 0 40 40" width="40" xmlns="http://www.w3.org/2000/svg" xmlns:xlink="http://www.w3.org/1999/xlink"><clipPath id="a"><path d="m0 0h40v40h-40z"/></clipPath><g clip-path="url(#a)"><path clip-rule="evenodd" d="m6.61429 15c1.01991-2.7268 2.84827-5.07704 5.24041-6.7363 2.3922-1.65926 5.234-2.54837 8.1453-2.54837s5.7531.88911 8.1453 2.54837c2.3921 1.65926 4.2205 4.0095 5.2404 6.7363zm-.88286 4.2857c-.17677 3.5364.96576 7.0124 3.20613 9.7542 2.24034 2.7419 5.41894 4.5543 8.91954 5.0858v-8.0028l-5.9828-6.8372zm16.41147 14.84c3.5006-.5315 6.6792-2.3439 8.9195-5.0858 2.2404-2.7418 3.3829-6.2178 3.2062-9.7542h-6.1429l-5.9828 6.8372zm-2.1429-34.1257c-5.3043 0-10.39141 2.10714-14.14214 5.85786-3.75072 3.75073-5.85786 8.83784-5.85786 14.14214s2.10714 10.3914 5.85786 14.1421c3.75073 3.7508 8.83784 5.8579 14.14214 5.8579s10.3914-2.1071 14.1421-5.8579c3.7508-3.7507 5.8579-8.8378 5.8579-14.1421s-2.1071-10.39141-5.8579-14.14214c-3.7507-3.75072-8.8378-5.85786-14.1421-5.85786z" fill="#dfb330" fill-rule="evenodd"/></g></svg>