<svg fill="none" height="40" viewBox="0 0 40 40" width="40" xmlns="http://www.w3.org/2000/svg" xmlns:xlink="http://www.w3.org/1999/xlink"><clipPath id="a"><path d="m0 0h40v40h-40z"/></clipPath><g clip-path="url(#a)"><path clip-rule="evenodd" d="m4.28571 0c-1.13664 0-2.22673.451529-3.03045 1.25526-.803731.80372-1.25526 1.89381-1.25526 3.03045v17.14289c0 1.1366.451529 2.2267 1.25526 3.0304.80372.8038 1.89381 1.2553 3.03045 1.2553h31.42859c1.1366 0 2.2267-.4515 3.0304-1.2553.8038-.8037 1.2553-1.8938 1.2553-3.0304v-17.14289c0-1.13664-.4515-2.22673-1.2553-3.03045-.8037-.803731-1.8938-1.25526-3.0304-1.25526zm17.49999 4.15429c0-.47361-.1881-.92781-.523-1.26269-.3349-.33489-.7891-.52303-1.2627-.52303s-.9278.18814-1.2627.52303c-.3349.33488-.523.78908-.523 1.26269v1.14285c-1.0282.12049-1.9805.60153-2.6876 1.35767-.7071.75615-1.1233 1.73846-1.1747 2.77245-.0514 1.03394.2653 2.05274.894 2.87524.6286.8226 1.5285 1.3957 2.5397 1.6175l3.42.7457c.2754.0523.5209.2063.6877.4315s.2426.505.2124.7836c-.0303.2787-.1645.5356-.3758.7197-.2112.1842-.4842.2819-.7643.2738h-1.9314c-.2311.0008-.4567-.0703-.6456-.2034-.1888-.1331-.3317-.3216-.4087-.5395-.1688-.4313-.4987-.7802-.9199-.973-.4212-.1927-.9008-.2142-1.3376-.06-.4368.1543-.7966.4722-1.0033.8867-.2068.4145-.2444.8932-.1049 1.3349.5543 1.5714 1.9228 2.7571 3.6 3.0543v1.1857c0 .4736.1881.9278.523 1.2627s.7891.523 1.2627.523.9278-.1881 1.2627-.523.523-.7891.523-1.2627v-1.1886c1.069-.1894 2.0391-.7439 2.7448-1.5688.7057-.825 1.1032-1.8692 1.1248-2.9546s-.3342-2.1447-1.0065-2.997c-.6724-.8523-1.6196-1.445-2.6802-1.6767l-3.42-.7457c-.1949-.0409-.3677-.1528-.4847-.3139-.117-.16115-.17-.36002-.1487-.55801.0214-.19799.1156-.38098.2643-.51342s.3414-.20489.5405-.20327h2.2457c.2313-.00162.4573.06913.6463.20233.1891.13321.3317.32221.408.54053.0721.22843.1895.44004.3451.62214s.3463.3311.5606.438c.2144.107.4481.1697.6871.1844.2391.0148.4788-.0187.7046-.0985.2259-.0798.4334-.2042.6102-.3658.1769-.1616.3193-.3572.419-.57499.0997-.21783.1545-.45348.1612-.69294.0067-.23945-.0348-.47781-.1221-.70088-.276-.78218-.7547-1.47706-1.3872-2.01367s-1.3961-.89571-2.2128-1.04062zm-13.92856 6.56001c.56832 0 1.11337.2258 1.51523.6276.40187.4019.62763.9469.62763 1.5152 0 .5684-.22576 1.1134-.62763 1.5153-.40186.4018-.94691.6276-1.51523.6276s-1.11336-.2258-1.51523-.6276c-.40186-.4019-.62762-.9469-.62762-1.5153 0-.5683.22576-1.1133.62762-1.5152.40187-.4018.94691-.6276 1.51523-.6276zm24.28576 0c.5683 0 1.1133.2258 1.5152.6276.4018.4019.6276.9469.6276 1.5152 0 .5684-.2258 1.1134-.6276 1.5153-.4019.4018-.9469.6276-1.5152.6276-.5684 0-1.1134-.2258-1.5153-.6276-.4018-.4019-.6276-.9469-.6276-1.5153 0-.5683.2258-1.1133.6276-1.5152.4019-.4018.9469-.6276 1.5153-.6276zm-19.2858 17.5c.9858 0 1.7858.8 1.7858 1.7857v5.7143c0 .4736-.1882.9278-.5231 1.2627s-.7891.523-1.2627.523-.9278-.1881-1.2626-.523c-.3349-.3349-.5231-.7891-.5231-1.2627v-5.7143c0-.9857.8-1.7857 1.7857-1.7857zm16.0715 1.7857c0-.2345-.0462-.4667-.136-.6834-.0897-.2166-.2212-.4135-.387-.5793-.1659-.1658-.3627-.2973-.5794-.3871-.2166-.0897-.4488-.1359-.6833-.1359s-.4668.0462-.6834.1359c-.2167.0898-.4135.2213-.5793.3871-.1659.1658-.2974.3627-.3871.5793-.0898.2167-.136.4489-.136.6834v5.7143c0 .2345.0462.4667.136.6833.0897.2167.2212.4136.3871.5794.1658.1658.3626.2973.5793.3871.2166.0897.4489.1359.6834.1359s.4667-.0462.6833-.1359c.2167-.0898.4135-.2213.5794-.3871.1658-.1658.2973-.3627.387-.5794.0898-.2166.136-.4488.136-.6833zm-7.1429 2.1429c0-.4736-.1881-.9278-.523-1.2627s-.7891-.5231-1.2627-.5231-.9278.1882-1.2627.5231-.523.7891-.523 1.2627v5.7142c0 .4736.1881.9279.523 1.2627.3349.3349.7891.5231 1.2627.5231s.9278-.1882 1.2627-.5231c.3349-.3348.523-.7891.523-1.2627z" fill="#dfb330" fill-rule="evenodd"/></g></svg>