<svg fill="none" height="38" viewBox="0 0 38 38" width="38" xmlns="http://www.w3.org/2000/svg"><path d="m29.5556 6.33333h-4.2223v-2.11111h2.1111c.5599 0 1.0969-.22242 1.4928-.61833s.6184-.93288.6184-1.49278-.2225-1.09687-.6184-1.49278-.9329-.61833-1.4928-.61833h-4.2222c-.5599 0-1.0968.22242-1.4928.61833-.3959.39591-.6183.93288-.6183 1.49278v4.22222h-1.0555c2.0558 2.33099 3.1828 5.33647 3.1666 8.44447v8.4444c0 .5599-.2224 1.0969-.6183 1.4928s-.9329.6183-1.4928.6183-1.0969-.2224-1.4928-.6183-.6183-.9329-.6183-1.4928v-8.4444c0-2.2396-.8897-4.3875-2.4733-5.97115-1.5837-1.58364-3.7315-2.47332-5.9711-2.47332h-1.0556c-5.27778 0-9.5 4.22227-9.5 9.49997v11.6111c0 1.2667.844444 2.1112 2.11111 2.1112h14.77779v6.3333c0 1.2667.8444 2.1111 2.1111 2.1111h4.2222c1.2667 0 2.1111-.8444 2.1111-2.1111v-6.3333h10.5556c1.2667 0 2.1111-.8445 2.1111-2.1112v-12.6666c0-2.2396-.8897-4.3875-2.4733-5.97115-1.5837-1.58364-3.7315-2.47332-5.9711-2.47332zm-19 17.94447h-2.11116c-.5599 0-1.09687-.2224-1.49278-.6184-.39591-.3959-.61833-.9328-.61833-1.4927s.22242-1.0969.61833-1.4928.93288-.6183 1.49278-.6183h2.11116c.5599 0 1.0968.2224 1.4927.6183s.6184.9329.6184 1.4928-.2225 1.0968-.6184 1.4927c-.3959.396-.9328.6184-1.4927.6184z" fill="#dfb330"/></svg>