<svg width="20" height="18" viewBox="0 0 20 18" fill="none" xmlns="http://www.w3.org/2000/svg">
<rect width="20" height="18" fill="#B6B6B6"/>
<g id="&#208;&#180;&#208;&#181;&#209;&#129;&#208;&#186;&#209;&#130;&#208;&#190;&#208;&#191; &#208;&#179;&#208;&#187;&#208;&#176;&#208;&#178;&#208;&#189;&#208;&#176;&#209;&#143;">
<rect width="1440" height="1395" transform="translate(-241 -1252)" fill="#F6F6F6"/>
<g id="&#208;&#179;&#208;&#187;&#208;&#176;&#208;&#178;&#208;&#189;&#208;&#176;&#209;&#143; &#208;&#180;&#208;&#181;&#209;&#129;&#208;&#186;&#209;&#130;&#208;&#190;&#208;&#191;">
<g id="stocks">
<g id="stocks card">
<g id="card" clip-path="url(#clip0_0_1)">
<g id="card product">
<mask id="path-1-inside-1_0_1" fill="white">
<path d="M-161 -414H1241V117H-161V-414Z"/>
</mask>
<path d="M-161 -413H1241V-415H-161V-413ZM1241 116H-161V118H1241V116Z" fill="#BCC5FF" mask="url(#path-1-inside-1_0_1)"/>
<g id="card product_2">
<g id="card product_3">
<g id="card_2">
<g id="card product_4">
<g id="price">
<g id="availability">
<g id=" icon heart" filter="url(#filter0_d_0_1)">
<rect x="-10" y="-11" width="40" height="40" rx="8" fill="#F6F6F6"/>
<path id="Vector" d="M17.612 2.82611C17.1722 2.40569 16.65 2.07219 16.0752 1.84465C15.5005 1.61711 14.8844 1.5 14.2623 1.5C13.6401 1.5 13.0241 1.61711 12.4493 1.84465C11.8746 2.07219 11.3524 2.40569 10.9126 2.82611L9.99977 3.69821L9.08699 2.82611C8.19858 1.9773 6.99364 1.50044 5.73725 1.50044C4.48085 1.50044 3.27591 1.9773 2.38751 2.82611C1.4991 3.67492 1 4.82616 1 6.02656C1 7.22696 1.4991 8.37819 2.38751 9.227L3.30029 10.0991L9.99977 16.5L16.6992 10.0991L17.612 9.227C18.0521 8.80679 18.4011 8.30785 18.6393 7.75871C18.8774 7.20957 19 6.62097 19 6.02656C19 5.43214 18.8774 4.84355 18.6393 4.2944C18.4011 3.74526 18.0521 3.24633 17.612 2.82611Z" stroke="#0C0C0C" stroke-width="2" stroke-linecap="round" stroke-linejoin="round"/>
</g>
</g>
</g>
</g>
</g>
</g>
</g>
</g>
</g>
</g>
</g>
</g>
</g>
<defs>
<filter id="filter0_d_0_1" x="-29" y="-30" width="80" height="80" filterUnits="userSpaceOnUse" color-interpolation-filters="sRGB">
<feFlood flood-opacity="0" result="BackgroundImageFix"/>
<feColorMatrix in="SourceAlpha" type="matrix" values="0 0 0 0 0 0 0 0 0 0 0 0 0 0 0 0 0 0 127 0" result="hardAlpha"/>
<feOffset dx="1" dy="1"/>
<feGaussianBlur stdDeviation="10"/>
<feComposite in2="hardAlpha" operator="out"/>
<feColorMatrix type="matrix" values="0 0 0 0 0 0 0 0 0 0 0 0 0 0 0 0 0 0 0.1 0"/>
<feBlend mode="normal" in2="BackgroundImageFix" result="effect1_dropShadow_0_1"/>
<feBlend mode="normal" in="SourceGraphic" in2="effect1_dropShadow_0_1" result="shape"/>
</filter>
<clipPath id="clip0_0_1">
<rect width="1280" height="531" fill="white" transform="translate(-161 -414)"/>
</clipPath>
</defs>
</svg>
